<?xml version="1.0" encoding="utf-8"?>
<svg width="200" height="200" viewBox="0 0 200 200" fill="none" xmlns="http://www.w3.org/2000/svg">
  <defs>
    <radialGradient id="bgGradient" cx="50%" cy="50%" r="50%">
      <stop offset="0" stop-color="#4A90E2"/>
      <stop offset="1" stop-color="#6A5ACD"/>
    </radialGradient>
    <filter id="dropShadow" x="-20%" y="-20%" width="140%" height="140%">
      <feDropShadow dx="0" dy="4" stdDeviation="4" flood-color="rgba(0,0,0,0.3)"/>
    </filter>
  </defs>
  <circle cx="100" cy="100" r="90" fill="url(#bgGradient)"/>
  <g filter="url(#dropShadow)">
    <path d="M 49.331 50.323 L 49.156 145.335 L 67.515 108.511 L 74.244 95.22 L 84.356 91.792 L 104.355 85.453 L 104.227 85.14 C 105.158 87.991 69.35 74.105 69.35 74.105 L 96.876 46.268 L 49.331 50.323 Z" fill="#FFFFFF" style=""/>
    <path d="M 123.469 45.024 C 145.981 45.623 160.382 54.449 150.335 75.957 C 140.288 97.465 101.72 139.285 156.245 115.071 C 184.021 93.68 165.264 145.74 125.335 145.957 C 88.205 146.221 105.934 110.934 120.934 100.934 C 135.934 90.934 146.51 49.114 108.493 60.576 C 90.072 69.573 75.452 49.378 123.469 45.024 Z" fill="#FFFFFF"/>
  </g>
  <g transform="matrix(2.569679, 0, 0, 2.569679, 238.893875, 44.798676)">
    <title>2FAS</title>
    <path d="M12 0c-.918 0-1.833.12-2.72.355L4.07 1.748a2.64 2.64 0 0 0-1.96 2.547v9.115a7.913 7.913 0 0 0 3.552 6.606l5.697 3.765a1.32 1.32 0 0 0 1.467-.008l5.572-3.752a7.931 7.931 0 0 0 3.493-6.57V4.295a2.638 2.638 0 0 0-1.961-2.547L14.72.355A10.594 10.594 0 0 0 12 0ZM7.383 5.4h9.228c.726 0 1.32.594 1.32 1.32 0 .734-.587 1.32-1.32 1.32H7.383c-.727 0-1.32-.593-1.32-1.32 0-.726.593-1.32 1.32-1.32zM7.38 9.357h3.299c.727 0 1.32.595 1.32 1.32a1.32 1.32 0 0 1-1.318 1.32H7.38c-.726 0-1.32-.592-1.32-1.32 0-.725.594-1.32 1.32-1.32zm0 3.96c.727 0 1.32.593 1.32 1.32 0 .727-.586 1.318-1.32 1.318-.726 0-1.32-.592-1.32-1.318 0-.727.594-1.32 1.32-1.32z"/>
  </g>
  <g transform="matrix(2.569679, 0, 0, 2.569679, 271.552521, 36.089714)">
    <title>2FAS</title>
    <path d="M12 0c-.918 0-1.833.12-2.72.355L4.07 1.748a2.64 2.64 0 0 0-1.96 2.547v9.115a7.913 7.913 0 0 0 3.552 6.606l5.697 3.765a1.32 1.32 0 0 0 1.467-.008l5.572-3.752a7.931 7.931 0 0 0 3.493-6.57V4.295a2.638 2.638 0 0 0-1.961-2.547L14.72.355A10.594 10.594 0 0 0 12 0ZM7.383 5.4h9.228c.726 0 1.32.594 1.32 1.32 0 .734-.587 1.32-1.32 1.32H7.383c-.727 0-1.32-.593-1.32-1.32 0-.726.593-1.32 1.32-1.32zM7.38 9.357h3.299c.727 0 1.32.595 1.32 1.32a1.32 1.32 0 0 1-1.318 1.32H7.38c-.726 0-1.32-.592-1.32-1.32 0-.725.594-1.32 1.32-1.32zm0 3.96c.727 0 1.32.593 1.32 1.32 0 .727-.586 1.318-1.32 1.318-.726 0-1.32-.592-1.32-1.318 0-.727.594-1.32 1.32-1.32z"/>
  </g>
</svg>